<?xml version="1.0" encoding="UTF-8"?>
<svg id="Layer_2" data-name="Layer 2" xmlns="http://www.w3.org/2000/svg" viewBox="0 0 378.73 262.25">
  <defs>
    <style>
      .cls-1 {
        fill: #fff;
      }

      .cls-2, .cls-3 {
        fill: #629fff;
      }

      .cls-4 {
        stroke-linecap: square;
        stroke-width: 5px;
      }

      .cls-4, .cls-5, .cls-6 {
        fill: none;
      }

      .cls-4, .cls-5, .cls-6, .cls-3 {
        stroke: #000;
      }

      .cls-4, .cls-5, .cls-3 {
        stroke-miterlimit: 10;
      }

      .cls-5, .cls-6 {
        stroke-width: 4px;
      }

      .cls-6 {
        stroke-linejoin: round;
      }

      .cls-3 {
        stroke-width: 3px;
      }
    </style>
  </defs>
  <g id="cloud">
    <path class="cls-1" d="m378.73,172.09c0,32.82-32,59.43-71.48,59.43-20.22,0-38.48-6.98-51.48-18.2-5.96,27.81-35.19,48.92-70.36,48.92-33.02,0-60.81-18.63-69.02-43.93-12.27,8.26-27.91,13.21-44.93,13.21C32,231.53,0,204.92,0,172.09c0-19.45,11.23-36.71,28.6-47.55-11.96-10.62-19.27-24.9-19.27-40.6,0-32.82,32-59.43,71.48-59.43,14.7,0,28.36,3.69,39.72,10.01C131.85,14.14,156.65,0,185.42,0s54.37,14.59,65.44,35.5c11.69-6.92,25.99-11,41.43-11,39.47,0,71.48,26.61,71.48,59.43,0,14.73-6.44,28.2-17.1,38.57,19.31,10.64,32.06,28.87,32.06,49.58Z"/>
  </g>
  <g id="Layer_3" data-name="Layer 3">
    <g>
      <g>
        <path class="cls-1" d="m310.95,118.89v.63c0,3.29-3,5.96-6.69,5.96H88.79c-3.7,0-6.7-2.67-6.7-5.96v-.63c0-3.3,3-5.96,6.7-5.96h166.08c.92,1.73,3.04,2.95,5.52,2.95,1.61,0,3.08-.53,4.16-1.37.81,1.91,3.05,3.29,5.67,3.29,3.31,0,6-2.18,6-4.87h28.04c3.69,0,6.69,2.66,6.69,5.96Z"/>
        <path class="cls-1" d="m303.7,125.48l-5.12,29.3c-3.47,19.85-28.68,34.81-58.65,34.81h-1.19v7.28c0,2.5-3.04,4.52-6.79,4.52-1.87,0-3.57-.5-4.79-1.32-1.24-.82-2-1.95-2-3.2v-7.28h-54.5v7.28c0,2.5-3.03,4.52-6.78,4.52-1.87,0-3.57-.5-4.8-1.32s-1.99-1.95-1.99-3.2l.53-7.28c-14.51,0-27.94-3.52-38.32-9.42s-17.7-14.19-19.99-23.74l-7.4-30.95h211.79Z"/>
        <path class="cls-2" d="m288.22,110.36c.06.9-.06,1.76-.33,2.57h-11.67c0,2.69-2.69,4.87-6,4.87-2.62,0-4.86-1.38-5.67-3.29-1.08.84-2.55,1.37-4.16,1.37-2.48,0-4.6-1.22-5.52-2.95h-52.4c-.65-1-1.02-2.11-1.02-3.29,0-4.15,4.55-7.52,10.16-7.52.1,0,.2,0,.3.01-.2-.5-.3-1.03-.3-1.57,0-3.04,3.23-5.51,7.22-5.51,3.46,0,6.35,1.85,7.06,4.33,1.25-.79,2.84-1.25,4.58-1.25s3.29.45,4.53,1.21c0-.05,0-.09,0-.14,0-4.66,4.32-8.44,9.65-8.44,2.79,0,5.3,1.04,7.07,2.7.92-3.82,4.8-6.69,9.44-6.69,5.33,0,9.65,3.78,9.65,8.43,0,.59-.07,1.16-.2,1.71.07-.01.13-.01.2-.01,4.15,0,7.52,2.59,7.52,5.78,0,.22-.02.44-.05.65.32-.05.66-.09,1.01-.11,4.68-.23,8.69,2.97,8.94,7.14Z"/>
      </g>
      <g>
        <path class="cls-5" d="m303.7,125.48l-5.12,29.3c-3.47,19.85-28.68,34.81-58.65,34.81h-1.19v7.28c0,2.5-3.04,4.52-6.79,4.52-1.87,0-3.57-.5-4.79-1.32-1.24-.82-2-1.95-2-3.2v-7.28h-54.5v7.28c0,2.5-3.03,4.52-6.78,4.52-1.87,0-3.57-.5-4.8-1.32s-1.99-1.95-1.99-3.2l.53-7.28c-14.51,0-27.94-3.52-38.32-9.42s-17.7-14.19-19.99-23.74l-7.4-30.95"/>
        <path class="cls-4" d="m113.6,111.8c.09-7.29.05-6.01.3-10.41.16-2.87,3.3-5.14,7.12-4.91,3.57.21,6.08,1.91,6.41,5.31"/>
        <path class="cls-5" d="m287.89,112.93h16.37c3.69,0,6.69,2.66,6.69,5.96v.63c0,3.29-3,5.96-6.69,5.96H88.79c-3.7,0-6.7-2.67-6.7-5.96v-.63c0-3.3,3-5.96,6.7-5.96h113.68"/>
        <path class="cls-6" d="m287.89,112.93h-11.67c0,2.69-2.69,4.87-6,4.87-2.62,0-4.86-1.38-5.67-3.29-1.08.84-2.55,1.37-4.16,1.37-2.48,0-4.6-1.22-5.52-2.95h-52.4c-.65-1-1.02-2.11-1.02-3.29,0-4.15,4.55-7.52,10.16-7.52.1,0,.2,0,.3.01-.2-.5-.3-1.03-.3-1.57,0-3.04,3.23-5.51,7.22-5.51,3.46,0,6.35,1.85,7.06,4.33,1.25-.79,2.84-1.25,4.58-1.25s3.29.45,4.53,1.21c0-.05,0-.09,0-.14,0-4.66,4.32-8.44,9.65-8.44,2.79,0,5.3,1.04,7.07,2.7.92-3.82,4.8-6.69,9.44-6.69,5.33,0,9.65,3.78,9.65,8.43,0,.59-.07,1.16-.2,1.71.07-.01.13-.01.2-.01,4.15,0,7.52,2.59,7.52,5.78,0,.22-.02.44-.05.65.32-.05.66-.09,1.01-.11,4.68-.23,8.69,2.97,8.94,7.14.06.9-.06,1.76-.33,2.57Z"/>
      </g>
    </g>
    <circle class="cls-3" cx="197.06" cy="89.7" r="4.38"/>
    <circle class="cls-3" cx="280.68" cy="67.43" r="4.38"/>
    <circle class="cls-3" cx="222.1" cy="40.94" r="4.38"/>
  </g>
</svg>