<?xml version="1.0" encoding="UTF-8"?>
<svg id="Layer_2" data-name="Layer 2" xmlns="http://www.w3.org/2000/svg" viewBox="0 0 378.73 262.25">
  <defs>
    <style>
      .cls-1, .cls-2 {
        fill: #fff;
      }

      .cls-3 {
        fill: #629fff;
      }

      .cls-4 {
        fill: #4cdaf5;
      }

      .cls-5 {
        stroke-linecap: round;
      }

      .cls-5, .cls-6 {
        fill: none;
      }

      .cls-5, .cls-6, .cls-2 {
        stroke: #000;
        stroke-linejoin: round;
        stroke-width: 4px;
      }
    </style>
  </defs>
  <g id="cloud">
    <path class="cls-1" d="m378.73,172.09c0,32.82-32,59.43-71.48,59.43-20.22,0-38.48-6.98-51.48-18.2-5.96,27.81-35.19,48.92-70.36,48.92-33.02,0-60.81-18.63-69.02-43.93-12.27,8.26-27.91,13.21-44.93,13.21C32,231.53,0,204.92,0,172.09c0-19.45,11.23-36.71,28.6-47.55-11.96-10.62-19.27-24.9-19.27-40.6,0-32.82,32-59.43,71.48-59.43,14.7,0,28.36,3.69,39.72,10.01C131.85,14.14,156.65,0,185.42,0s54.37,14.59,65.44,35.5c11.69-6.92,25.99-11,41.43-11,39.47,0,71.48,26.61,71.48,59.43,0,14.73-6.44,28.2-17.1,38.57,19.31,10.64,32.06,28.87,32.06,49.58Z"/>
  </g>
  <g id="Layer_3" data-name="Layer 3">
    <g>
      <g>
        <path d="m94.8,111.74c-2.72-1.77-4.4-4.32-4.61-6.97-.24-3.35,1.9-6.61,5.22-7.94.01,0,.01-.01.01-.01,3.46-1.38,8.51.59,9.2,1.29.23-.61-.19-.49.2-1.01,1.45-1.95,2.8-4.13,5.01-4.51,3.7-.63,7.44,1.44,8.71,4.83,1.11,2.97.23,6.07-.53,8.15-1.29,3.51-3.23,6.83-5.78,9.88-.4.49-.97.82-1.58.96-.51.11-1.06.09-1.57-.08-1.46-.49-3.01-.83-4.66-1.19-.72-.16-1.44-.32-2.16-.49-2.37-.57-5.1-1.36-7.46-2.91Z"/>
        <path class="cls-1" d="m104.62,98.11c-.69-.7-5.74-2.67-9.2-1.29,0,0,0,.01-.01.01-3.32,1.33-5.46,4.59-5.22,7.94.21,2.65,1.89,5.2,4.61,6.97,2.36,1.55,5.09,2.34,7.46,2.91.72.17,1.44.33,2.16.49,1.65.36,3.2.7,4.66,1.19.51.17,1.06.19,1.57.08.61-.14,1.18-.47,1.58-.96,2.55-3.05,4.49-6.37,5.78-9.88.76-2.08,1.64-5.18.53-8.15-1.27-3.39-5.01-5.46-8.71-4.83-2.21.38-3.56,2.56-5.01,4.51-.39.52.03.4-.2,1.01Zm30.16.84c.91,4,.43,8.23-1.41,12.57-1.15,2.71-.59,4.26.42,7.05.2.57.41,1.16.63,1.8.23.7.04,1.48-.52,2.05-.55.57-1.38.84-2.18.72-.7-.11-1.48-.3-2.31-.49-1.31-.31-3.29-.78-4.12-.63-.57.1-1.27.63-2.01,1.2-.47.36-.95.73-1.5,1.07-3.71,2.34-8.05,4.12-12.53,5.13-17.01,3.85-33.24-3.57-36.17-16.53s8.53-26.63,25.54-30.48c17.01-3.84,33.23,3.58,36.16,16.54Z"/>
      </g>
      <g>
        <path class="cls-5" d="m109.25,129.42c-17.01,3.85-33.24-3.57-36.17-16.53s8.53-26.63,25.54-30.48c17.01-3.84,33.23,3.58,36.16,16.54.91,4,.43,8.23-1.41,12.57-1.15,2.71-.59,4.26.42,7.05.2.57.41,1.16.63,1.8.23.7.04,1.48-.52,2.05-.55.57-1.38.84-2.18.72-.7-.11-1.48-.3-2.31-.49-1.31-.31-3.29-.78-4.12-.63-.57.1-1.27.63-2.01,1.2-.47.36-.95.73-1.5,1.07-3.71,2.34-8.05,4.12-12.53,5.13Z"/>
        <path class="cls-5" d="m110.65,116.41c-.51.11-1.06.09-1.57-.08-1.46-.49-3.01-.83-4.66-1.19-.72-.16-1.44-.32-2.16-.49-2.37-.57-5.1-1.36-7.46-2.91-2.72-1.77-4.4-4.32-4.61-6.97-.24-3.35,1.9-6.61,5.22-7.94.01,0,.01-.01.01-.01,3.46-1.38,8.51.59,9.2,1.29.23-.61-.19-.49.2-1.01,1.45-1.95,2.8-4.13,5.01-4.51,3.7-.63,7.44,1.44,8.71,4.83,1.11,2.97.23,6.07-.53,8.15-1.29,3.51-3.23,6.83-5.78,9.88-.4.49-.97.82-1.58.96Z"/>
      </g>
    </g>
    <g>
      <g>
        <path class="cls-4" d="m151.79,105.81c3.88,2.06,9.48,4.24,16.17,4.01,4.65-.15,6-1.3,13.23-2.45,1.34-.22,3.15-.51,5.29-.74,3.7-.42,8.42-.7,13.52-.21,10.94,1.04,13.08,4.57,21.07,3.97,5.43-.4,9.78-2.43,12.68-4.14-.06,3.72-.14,7.46-.23,11.21-.48,19.57-1.26,38.69-2.3,57.35,0,18.97-13.25,34.34-29.61,34.34h-16.81c-16.36,0-29.62-15.37-29.62-34.34l-3.39-69Z"/>
        <path class="cls-3" d="m200,83.11v23.31c-5.1-.49-9.82-.21-13.52.21v-23.52h13.52Z"/>
        <rect class="cls-3" x="186.48" y="45.73" width="13.52" height="37.38"/>
      </g>
      <g>
        <path class="cls-6" d="m233.75,106.25c-.06,3.72-.14,7.46-.23,11.21-.48,19.57-1.26,38.69-2.3,57.35,0,18.97-13.25,34.34-29.61,34.34h-16.81c-16.36,0-29.62-15.37-29.62-34.34l-3.39-69"/>
        <path class="cls-6" d="m186.48,106.63c-2.14.23-3.95.52-5.29.74-7.23,1.15-8.58,2.3-13.23,2.45-6.69.23-12.29-1.95-16.17-4.01l-1.11-22.7h83.36c-.05,7.64-.14,15.35-.29,23.14-2.9,1.71-7.25,3.74-12.68,4.14-7.99.6-10.13-2.93-21.07-3.97"/>
        <path class="cls-6" d="m186.48,83.11v-37.38h13.52v60.69c-5.1-.49-9.82-.21-13.52.21v-23.52Z"/>
        <path class="cls-6" d="m151.79,105.81c-.39-.21-.76-.41-1.11-.61"/>
        <path class="cls-6" d="m234.68,105.67c-.29.19-.6.38-.93.58"/>
      </g>
    </g>
    <circle class="cls-2" cx="192.77" cy="197.84" r="4.54"/>
    <circle class="cls-2" cx="211.63" cy="187.32" r="4.54"/>
    <circle class="cls-2" cx="171.45" cy="185.76" r="4.54"/>
    <circle class="cls-2" cx="188.24" cy="181.22" r="4.54"/>
  </g>
</svg>