<?xml version="1.0" encoding="UTF-8"?>
<svg id="Layer_2" data-name="Layer 2" xmlns="http://www.w3.org/2000/svg" viewBox="0 0 378.73 262.25">
  <defs>
    <style>
      .cls-1 {
        fill: #4cdaf5;
      }

      .cls-1, .cls-2, .cls-3, .cls-4 {
        stroke: #000;
        stroke-linecap: round;
        stroke-linejoin: round;
      }

      .cls-1, .cls-3, .cls-4 {
        stroke-width: 4px;
      }

      .cls-5 {
        fill: #e6e6e6;
      }

      .cls-2 {
        fill: none;
        stroke-width: 5px;
      }

      .cls-3 {
        fill: #629fff;
      }

      .cls-4 {
        fill: #fff;
      }
    </style>
  </defs>
  <g id="cloud">
    <path class="cls-5" d="m378.73,172.09c0,32.82-32,59.43-71.48,59.43-20.22,0-38.48-6.98-51.48-18.2-5.96,27.81-35.19,48.92-70.36,48.92-33.02,0-60.81-18.63-69.02-43.93-12.27,8.26-27.91,13.21-44.93,13.21C32,231.53,0,204.92,0,172.09c0-19.45,11.23-36.71,28.6-47.55-11.96-10.62-19.27-24.9-19.27-40.6,0-32.82,32-59.43,71.48-59.43,14.7,0,28.36,3.69,39.72,10.01C131.85,14.14,156.65,0,185.42,0s54.37,14.59,65.44,35.5c11.69-6.92,25.99-11,41.43-11,39.47,0,71.48,26.61,71.48,59.43,0,14.73-6.44,28.2-17.1,38.57,19.31,10.64,32.06,28.87,32.06,49.58Z"/>
  </g>
  <g id="Layer_3" data-name="Layer 3">
    <path class="cls-1" d="m266.75,151.61c0-15.79-14.68-28.75-33.39-30.12v-17.48h-94.63v70.37c0,12.4,10.68,22.45,23.86,22.45h46.91c10.41,0,19.25-6.27,22.52-15.01,19.35-.83,34.74-14.03,34.74-30.21Zm-33.39,19.38v-38.76c11.55,1.32,20.45,9.49,20.45,19.38s-8.9,18.07-20.45,19.38Z"/>
    <path class="cls-2" d="m158.35,60.81c-4.43,2.78-5.97,8.94-3.34,13.29,1.18,1.94,3.01,3.46,4.3,5.32,3.48,5,2.25,12.41-2.68,16.18"/>
    <path class="cls-2" d="m184.71,60.81c-4.43,2.78-5.97,8.94-3.34,13.29,1.18,1.94,3.01,3.46,4.3,5.32,3.48,5,2.25,12.41-2.68,16.18"/>
    <path class="cls-2" d="m210.39,60.81c-4.43,2.78-5.97,8.94-3.34,13.29,1.18,1.94,3.01,3.46,4.3,5.32,3.48,5,2.25,12.41-2.68,16.18"/>
    <line class="cls-3" x1="169.23" y1="104.01" x2="169.23" y2="137.83"/>
    <polygon class="cls-4" points="185.57 150.13 185.57 168.96 152.9 168.96 152.9 150.13 156.63 144 160.39 137.83 178.8 137.9 182.18 144 185.57 150.13"/>
  </g>
</svg>