<?xml version="1.0" encoding="UTF-8"?>
<svg id="Layer_2" data-name="Layer 2" xmlns="http://www.w3.org/2000/svg" viewBox="0 0 281.05 323.17">
  <defs>
    <style>
      .cls-1 {
        fill: #fff;
      }

      .cls-2 {
        fill: #629fff;
      }

      .cls-3, .cls-4 {
        stroke: #000;
        stroke-miterlimit: 10;
        stroke-width: 4px;
      }

      .cls-4 {
        fill: none;
      }
    </style>
  </defs>
  <g id="Layer_3" data-name="Layer 3">
    <g>
      <g>
        <path class="cls-2" d="m279.05,161.58c0,60.89-29.6,113.81-73.13,140.71-1.24.77-2.8-.26-2.65-1.76.03-.3.06-.6.09-.9.09-.92.17-1.84.24-2.77.13-1.58.23-3.17.3-4.76.05-1.02.09-2.05.12-3.08.01-.34.02-.7.03-1.04.01-.39.02-.76.02-1.14.01-.8.02-1.61.02-2.42s-.01-1.67-.02-2.5c0-.61-.02-1.2-.04-1.8-.01-.62-.03-1.23-.07-1.84-.01-.56-.04-1.12-.07-1.67-.01-.41-.03-.81-.06-1.22-.06-1.07.74-1.95,1.75-1.95h4.46v-21.71c0-38.08,2.26-76.8.21-114.8-.32-5.86-.84-11.77-1.85-17.55-1.17-6.71-3-13.24-5.94-19.31-11.21-23.11-39.44-30.08-62.35-30.08-20.74,0-43.79,6.27-58.62,22.3-15.08,16.31-11.51,42.94-11.56,63.85,0,.76.01,2.19.01,4.19.08,19.62.48,93.13-2.38,109.75-.07.39-.05.77.03,1.13-.32,1.44-.67,2.23-1.06,2.23h8.95c1.01,0,1.81.89,1.75,1.95-.03.41-.05.81-.06,1.22-.03.55-.06,1.11-.07,1.67-.04.61-.06,1.22-.07,1.84-.02.6-.03,1.19-.04,1.8-.01.83-.02,1.66-.02,2.5s0,1.69.02,2.53c.01.76.03,1.53.05,2.29.11,3.52.33,6.99.65,10.41.03.3.06.6.09.9.15,1.49-1.41,2.53-2.65,1.76C31.61,275.39,2,222.47,2,161.58,2,73.45,64.02,2,140.53,2s138.52,71.45,138.52,159.58Z"/>
        <path d="m210.25,136.93c2.05,38.01-.21,76.72-.21,114.8v19.9c-.02.99-.78,1.79-1.73,1.81h-4.6c-2.62-38.28-18.84-70.11-40.85-83.17,19.58-8.27,33.25-27.1,33.25-49,0-4.33-.55-8.54-1.56-12.57-3.36.68-7.14.4-11.09-.77-6.09-1.54-12.95-4.78-19.58-9.57-10.56-7.62-17.82-17.19-19.79-25.02-1.49,8.13-9.98,18.31-22.32,25.77-13.42,8.09-27.24,10.43-34.34,6.47h-.04c-1.58,4.96-2.44,10.23-2.44,15.69,0,21.9,13.68,40.72,33.26,49-22.02,13.06-38.24,44.89-40.86,83.17h-7.11c-1.31-.01-2.38-.98-2.65-2.23,3.06-14.06,2.47-90.79,2.35-110.88,0-2-.01-3.43-.01-4.19.05-20.92-3.52-47.55,11.56-63.85,14.83-16.04,37.88-22.3,58.62-22.3,22.91,0,51.14,6.97,62.35,30.08,2.94,6.07,4.77,12.6,5.94,19.31,1.01,5.78,1.53,11.69,1.85,17.55Zm-66.35-49.04c-.06-.18-.12-.37-.19-.54-.03.18-.06.36-.08.53.09.01.18.01.27.01Z"/>
        <path class="cls-2" d="m210.04,271.63v1.81h-1.73c.95-.02,1.71-.81,1.73-1.81Z"/>
        <path class="cls-1" d="m204.07,281.92c.01.83.02,1.66.02,2.5s-.01,1.62-.02,2.42c0,.38,0,.75-.02,1.14-.01.34-.02.69-.03,1.04-.03,1.03-.07,2.06-.12,3.08-.07,1.6-.18,3.19-.3,4.76-.07.93-.15,1.85-.24,2.77-.15,1.5-.31,3.01-.5,4.49-18.74,10.9-39.91,17.04-62.33,17.04s-43.6-6.14-62.34-17.04c-.19-1.48-.35-2.99-.5-4.49-.32-3.42-.54-6.88-.65-10.41-.02-.76-.04-1.53-.05-2.29-.01-.85-.02-1.68-.02-2.53s0-1.67.02-2.5c.01-.6.02-1.2.04-1.8.01-.62.03-1.23.07-1.84.01-.56.03-1.12.07-1.67.01-.41.03-.81.06-1.22.03-.66.08-1.31.12-1.95,2.62-38.28,18.84-70.11,40.86-83.17-19.58-8.27-33.26-27.1-33.26-49,0-5.46.86-10.73,2.44-15.69h.04c7.1,3.96,20.92,1.62,34.34-6.47,12.34-7.46,20.83-17.65,22.32-25.77,1.97,7.84,9.23,17.4,19.79,25.02,6.63,4.78,13.49,8.03,19.58,9.57,3.95,1.17,7.73,1.45,11.09.77,1.01,4.03,1.56,8.24,1.56,12.57,0,21.9-13.67,40.72-33.25,49,22.01,13.06,38.23,44.89,40.85,83.17.04.65.09,1.3.12,1.95.03.41.05.81.06,1.22.04.55.06,1.11.07,1.67.04.61.06,1.22.07,1.84.02.6.03,1.2.04,1.8Z"/>
        <path class="cls-2" d="m204.03,280.12c.02.6.03,1.19.04,1.8,0-.6-.02-1.2-.04-1.8Z"/>
        <path class="cls-1" d="m143.71,87.34c.07.18.13.37.19.54-.09,0-.18,0-.27-.01.02-.18.05-.36.08-.53Z"/>
        <path class="cls-2" d="m77.03,280.12c-.02.6-.03,1.2-.04,1.8.01-.61.02-1.2.04-1.8Z"/>
        <path class="cls-2" d="m70.24,273.44h-3.71c.39,0,.74-.78,1.06-2.23.27,1.24,1.34,2.21,2.65,2.23Z"/>
      </g>
      <g>
        <path class="cls-4" d="m76.97,284.42c0,.85,0,1.69.02,2.53.01.76.03,1.53.05,2.29"/>
        <path class="cls-4" d="m77.03,280.12c-.02.6-.03,1.2-.04,1.8"/>
        <path class="cls-4" d="m77.17,276.61c-.03.55-.06,1.11-.07,1.67"/>
        <path class="cls-4" d="m75.48,273.44c1.01,0,1.81.89,1.75,1.95"/>
        <path class="cls-4" d="m69.94,160.34c.08,19.62.48,93.13-2.38,109.75-.07.39-.05.77.03,1.13.27,1.24,1.34,2.21,2.65,2.23"/>
        <path class="cls-4" d="m208.31,273.44c.95-.02,1.71-.81,1.73-1.81"/>
        <path class="cls-4" d="m203.83,275.39c-.06-1.07.74-1.95,1.75-1.95"/>
        <path class="cls-4" d="m203.96,278.29c-.01-.56-.04-1.12-.07-1.67"/>
        <path class="cls-4" d="m204.07,281.92c0-.6-.02-1.2-.04-1.8"/>
        <path class="cls-4" d="m204.07,286.84c.01-.8.02-1.61.02-2.42"/>
        <path class="cls-4" d="m204.02,289.03c.01-.34.02-.7.03-1.04"/>
        <path class="cls-4" d="m203.6,296.87c.13-1.58.23-3.17.3-4.76"/>
        <path class="cls-4" d="m77.69,299.64c.03.3.06.6.09.9.15,1.49-1.41,2.53-2.65,1.76C31.61,275.39,2,222.47,2,161.58,2,73.45,64.02,2,140.53,2s138.52,71.45,138.52,159.58c0,60.89-29.6,113.81-73.13,140.71-1.24.77-2.8-.26-2.65-1.76.03-.3.06-.6.09-.9"/>
        <path class="cls-4" d="m204.07,281.92c.01.83.02,1.66.02,2.5s-.01,1.62-.02,2.42c0,.38,0,.75-.02,1.14-.01.34-.02.69-.03,1.04-.03,1.03-.07,2.06-.12,3.08-.07,1.6-.18,3.19-.3,4.76-.07.93-.15,1.85-.24,2.77-.15,1.5-.31,3.01-.5,4.49-18.74,10.9-39.91,17.04-62.33,17.04s-43.6-6.14-62.34-17.04c-.19-1.48-.35-2.99-.5-4.49-.32-3.42-.54-6.88-.65-10.41-.02-.76-.04-1.53-.05-2.29-.01-.85-.02-1.68-.02-2.53s0-1.67.02-2.5"/>
        <path class="cls-4" d="m203.71,273.44c.04.65.09,1.3.12,1.95.03.41.05.81.06,1.22.04.55.06,1.11.07,1.67.04.61.06,1.22.07,1.84"/>
        <path class="cls-4" d="m77.03,280.12c.01-.62.03-1.23.07-1.84.01-.56.03-1.12.07-1.67.01-.41.03-.81.06-1.22.03-.66.08-1.31.12-1.95"/>
        <path class="cls-4" d="m70.24,273.44h7.11c2.62-38.28,18.84-70.11,40.86-83.17-19.58-8.27-33.26-27.1-33.26-49,0-5.46.86-10.73,2.44-15.69h.04c7.1,3.96,20.92,1.62,34.34-6.47,12.34-7.46,20.83-17.65,22.32-25.77,1.97,7.84,9.23,17.4,19.79,25.02,6.63,4.78,13.49,8.03,19.58,9.57,3.95,1.17,7.73,1.45,11.09.77,1.01,4.03,1.56,8.24,1.56,12.57,0,21.9-13.67,40.72-33.25,49,22.01,13.06,38.23,44.89,40.85,83.17h4.6"/>
        <path class="cls-4" d="m210.04,271.63v-19.9c0-38.08,2.26-76.8.21-114.8-.32-5.86-.84-11.77-1.85-17.55-1.17-6.71-3-13.24-5.94-19.31-11.21-23.11-39.44-30.08-62.35-30.08-20.74,0-43.79,6.27-58.62,22.3-15.08,16.31-11.51,42.94-11.56,63.85,0,.76.01,2.19.01,4.19.12,20.09.71,96.81-2.35,110.88"/>
        <path class="cls-4" d="m143.63,87.88c.02-.18.05-.36.08-.53.07.18.13.37.19.54-.09,0-.18,0-.27-.01Z"/>
      </g>
    </g>
    <ellipse class="cls-3" cx="158.69" cy="148.17" rx="2.27" ry="5.34"/>
    <ellipse class="cls-3" cx="118.84" cy="148.83" rx="2.27" ry="5.34"/>
  </g>
</svg>