<?xml version="1.0" encoding="UTF-8"?>
<svg id="Layer_2" data-name="Layer 2" xmlns="http://www.w3.org/2000/svg" viewBox="0 0 281.05 323.17">
  <defs>
    <style>
      .cls-1 {
        fill: #fff;
      }

      .cls-2 {
        fill: #629fff;
      }

      .cls-3 {
        stroke-linecap: round;
      }

      .cls-3, .cls-4 {
        fill: none;
        stroke: #000;
        stroke-miterlimit: 10;
        stroke-width: 4px;
      }
    </style>
  </defs>
  <g id="Layer_3" data-name="Layer 3">
    <g>
      <g>
        <path class="cls-2" d="m279.05,161.58c0,60.89-29.6,113.81-73.13,140.71-1.23.76-2.77-.23-2.66-1.69,0-.02.01-.04,0-.06.08-.66.14-1.32.19-1.97.07-.66.12-1.32.17-1.98.1-1.19.17-2.38.24-3.59.07-1.24.12-2.5.16-3.75.02-.76.04-1.53.05-2.29.01-.84.02-1.68.02-2.53,0-.76-.01-1.53-.02-2.28-.01-.68-.02-1.37-.05-2.05-.01-.61-.03-1.21-.06-1.81-.01-.56-.04-1.12-.07-1.67,0-.41-.03-.81-.06-1.22-.06-1.07.73-1.95,1.75-1.95h4.46v-21.71c0-38.08,2.26-76.8.21-114.8-.32-5.86-.84-11.77-1.85-17.55-1.17-6.71-3-13.24-5.94-19.31-11.21-23.11-39.44-30.08-62.35-30.08-20.74,0-43.79,6.27-58.62,22.3-15.08,16.31-11.51,42.94-11.56,63.85,0,.76.01,2.19.01,4.19.08,19.62.48,93.13-2.38,109.75-.07.39-.05.77.03,1.12-.31,1.45-.67,2.24-1.06,2.24h8.94c1.02,0,1.81.89,1.75,1.95-.07,1.16-.12,2.33-.15,3.5-.03.67-.05,1.33-.06,2-.01.42-.02.84-.02,1.25-.01.75-.02,1.51-.02,2.28,0,.85.01,1.69.02,2.53s.03,1.67.06,2.51c.05,1.66.12,3.31.23,4.95.11,1.76.25,3.5.41,5.23.03.3.06.6.09.9.15,1.49-1.41,2.53-2.66,1.76C31.6,275.39,2,222.47,2,161.58,2,73.45,64.02,2,140.53,2s138.52,71.45,138.52,159.58Z"/>
        <path d="m210.25,136.93c2.05,38.01-.21,76.72-.21,114.8v19.87c0,1.01-.79,1.84-1.76,1.84h-4.57c-2.62-38.28-18.84-70.11-40.85-83.17,19.58-8.27,33.25-27.1,33.25-49,0-4.33-.55-8.54-1.56-12.57-3.36.68-7.14.4-11.09-.77-6.09-1.54-12.95-4.78-19.58-9.57-10.56-7.62-17.82-17.19-19.79-25.02-1.49,8.13-9.98,18.31-22.32,25.77-13.42,8.09-27.24,10.43-34.34,6.47h-.04c-1.58,4.96-2.44,10.23-2.44,15.69,0,21.9,13.68,40.72,33.26,49-22.02,13.06-38.24,44.89-40.86,83.17h-7.08c-1.33,0-2.41-.97-2.68-2.24,3.06-14.08,2.47-90.78,2.35-110.87,0-2-.01-3.43-.01-4.19.05-20.92-3.52-47.55,11.56-63.85,14.83-16.04,37.88-22.3,58.62-22.3,22.91,0,51.14,6.97,62.35,30.08,2.94,6.07,4.77,12.6,5.94,19.31,1.01,5.78,1.53,11.69,1.85,17.55Zm-66.35-49.04c-.06-.18-.12-.37-.19-.54-.03.18-.06.36-.08.53.09.01.18.01.27.01Z"/>
        <path class="cls-2" d="m210.04,271.6v1.84h-1.76c.97,0,1.76-.83,1.76-1.84Z"/>
        <path class="cls-1" d="m204.07,282.14c.01.75.02,1.51.02,2.28,0,.85-.01,1.68-.02,2.53-.01.76-.03,1.53-.05,2.29-.04,1.25-.09,2.51-.16,3.75-.07,1.2-.15,2.4-.24,3.59-.05.67-.1,1.33-.17,1.98-.06.66-.12,1.32-.19,1.97.01.02,0,.04,0,.06-.12,1.18-.25,2.36-.4,3.53-18.74,10.9-39.91,17.04-62.33,17.04s-43.6-6.14-62.34-17.04c-.19-1.48-.35-2.99-.5-4.49-.16-1.73-.3-3.48-.41-5.23-.1-1.64-.18-3.29-.23-4.95-.03-.84-.05-1.67-.06-2.51-.01-.85-.02-1.68-.02-2.53,0-.76.01-1.53.02-2.28,0-.42.01-.84.02-1.25.01-.67.03-1.34.06-2,.06-1.84.15-3.66.28-5.45,2.62-38.28,18.84-70.11,40.86-83.17-19.58-8.27-33.26-27.1-33.26-49,0-5.46.86-10.73,2.44-15.69h.04c7.1,3.96,20.92,1.62,34.34-6.47,12.34-7.46,20.83-17.65,22.32-25.77,1.97,7.84,9.23,17.4,19.79,25.02,6.63,4.78,13.49,8.03,19.58,9.57,3.95,1.17,7.73,1.45,11.09.77,1.01,4.03,1.56,8.24,1.56,12.57,0,21.9-13.67,40.72-33.25,49,22.01,13.06,38.23,44.89,40.85,83.17.04.65.09,1.3.12,1.95.03.41.05.81.06,1.22.04.55.06,1.11.07,1.67.03.6.05,1.2.06,1.81.03.68.04,1.37.05,2.05Z"/>
        <path class="cls-2" d="m204.02,280.09c.03.68.04,1.37.05,2.05-.01-.68-.02-1.37-.05-2.05Z"/>
        <path class="cls-2" d="m203.86,292.99c-.07,1.21-.14,2.4-.24,3.59.09-1.19.17-2.39.24-3.59Z"/>
        <path class="cls-2" d="m203.26,300.54c.07-.66.13-1.32.19-1.97-.05.66-.11,1.32-.19,1.97Z"/>
        <path class="cls-1" d="m143.71,87.34c.07.18.13.37.19.54-.09,0-.18,0-.27-.01.02-.18.05-.36.08-.53Z"/>
        <path class="cls-2" d="m77.01,280.89c-.01.42-.02.84-.02,1.25,0-.42.01-.84.02-1.25Z"/>
        <path class="cls-2" d="m70.27,273.44h-3.74c.39,0,.75-.78,1.06-2.24.27,1.26,1.35,2.24,2.68,2.24Z"/>
      </g>
      <g>
        <path class="cls-4" d="m76.97,284.42c0,.85.01,1.69.02,2.53s.03,1.67.06,2.51c.05,1.66.12,3.31.23,4.95"/>
        <path class="cls-4" d="m75.47,273.44c1.02,0,1.81.89,1.75,1.95-.07,1.16-.12,2.33-.15,3.5-.03.67-.05,1.33-.06,2-.01.42-.02.84-.02,1.25"/>
        <path class="cls-4" d="m69.94,160.34c.08,19.62.48,93.13-2.38,109.75-.07.39-.05.77.03,1.12.27,1.26,1.35,2.24,2.68,2.24"/>
        <path class="cls-4" d="m208.28,273.44c.97,0,1.76-.83,1.76-1.84"/>
        <path class="cls-4" d="m203.83,275.39c-.06-1.07.73-1.95,1.75-1.95"/>
        <path class="cls-4" d="m203.96,278.29c-.01-.56-.04-1.12-.07-1.67"/>
        <path class="cls-4" d="m204.07,282.14c-.01-.68-.02-1.37-.05-2.05"/>
        <path class="cls-4" d="m204.02,289.23c.02-.76.04-1.53.05-2.29.01-.84.02-1.68.02-2.53"/>
        <path class="cls-4" d="m203.62,296.58c.09-1.19.17-2.39.24-3.59"/>
        <path class="cls-4" d="m203.26,300.54c.07-.66.13-1.32.19-1.97"/>
        <path class="cls-4" d="m77.69,299.64c.03.3.06.6.09.9.15,1.49-1.41,2.53-2.66,1.76C31.6,275.39,2,222.47,2,161.58,2,73.45,64.02,2,140.53,2s138.52,71.45,138.52,159.58c0,60.89-29.6,113.81-73.13,140.71-1.23.76-2.77-.23-2.66-1.69"/>
        <path class="cls-4" d="m204.07,282.14c.01.75.02,1.51.02,2.28,0,.85-.01,1.68-.02,2.53-.01.76-.03,1.53-.05,2.29-.04,1.25-.09,2.51-.16,3.75"/>
        <path class="cls-4" d="m203.71,273.44c.04.65.09,1.3.12,1.95.03.41.05.81.06,1.22.04.55.06,1.11.07,1.67.03.6.05,1.2.06,1.81"/>
        <path class="cls-4" d="m77.01,280.89c.01-.67.03-1.34.06-2,.06-1.84.15-3.66.28-5.45"/>
        <path class="cls-4" d="m203.26,300.54s0,.04,0,.06c-.12,1.18-.25,2.36-.4,3.53-18.74,10.9-39.91,17.04-62.33,17.04s-43.6-6.14-62.34-17.04c-.19-1.48-.35-2.99-.5-4.49-.16-1.73-.3-3.48-.41-5.23-.1-1.64-.18-3.29-.23-4.95-.03-.84-.05-1.67-.06-2.51-.01-.85-.02-1.68-.02-2.53,0-.76.01-1.53.02-2.28"/>
        <path class="cls-4" d="m203.62,296.58c-.05.67-.1,1.33-.17,1.98"/>
        <path class="cls-4" d="m70.27,273.44h7.08c2.62-38.28,18.84-70.11,40.86-83.17-19.58-8.27-33.26-27.1-33.26-49,0-5.46.86-10.73,2.44-15.69h.04c7.1,3.96,20.92,1.62,34.34-6.47,12.34-7.46,20.83-17.65,22.32-25.77,1.97,7.84,9.23,17.4,19.79,25.02,6.63,4.78,13.49,8.03,19.58,9.57,3.95,1.17,7.73,1.45,11.09.77,1.01,4.03,1.56,8.24,1.56,12.57,0,21.9-13.67,40.72-33.25,49,22.01,13.06,38.23,44.89,40.85,83.17h4.57"/>
        <path class="cls-4" d="m210.04,271.6v-19.87c0-38.08,2.26-76.8.21-114.8-.32-5.86-.84-11.77-1.85-17.55-1.17-6.71-3-13.24-5.94-19.31-11.21-23.11-39.44-30.08-62.35-30.08-20.74,0-43.79,6.27-58.62,22.3-15.08,16.31-11.51,42.94-11.56,63.85,0,.76.01,2.19.01,4.19.12,20.09.71,96.78-2.35,110.87"/>
        <path class="cls-4" d="m143.63,87.88c.02-.18.05-.36.08-.53.07.18.13.37.19.54-.09,0-.18,0-.27-.01Z"/>
      </g>
    </g>
    <path class="cls-3" d="m164.83,150.65c-4.34-4.44-7.73-5.09-13.28-.49"/>
    <path class="cls-3" d="m125.48,150.65c-4.34-4.44-7.73-5.09-13.28-.49"/>
  </g>
</svg>