<?xml version="1.0" encoding="UTF-8"?>
<svg id="Layer_2" data-name="Layer 2" xmlns="http://www.w3.org/2000/svg" viewBox="0 0 378.73 262.25">
  <defs>
    <style>
      .cls-1 {
        fill: #e6e6e6;
      }

      .cls-2 {
        fill: #fff;
      }

      .cls-3 {
        fill: #4cdaf5;
      }

      .cls-4, .cls-5, .cls-6, .cls-7, .cls-8 {
        stroke: #000;
      }

      .cls-4, .cls-5, .cls-7, .cls-8 {
        stroke-linecap: round;
        stroke-linejoin: round;
      }

      .cls-4, .cls-7 {
        stroke-width: 4px;
      }

      .cls-4, .cls-8 {
        fill: none;
      }

      .cls-5, .cls-6 {
        fill: #629fff;
      }

      .cls-5, .cls-6, .cls-8 {
        stroke-width: 3px;
      }

      .cls-6 {
        stroke-miterlimit: 10;
      }
    </style>
  </defs>
  <g id="cloud">
    <path class="cls-1" d="m378.73,172.09c0,32.82-32,59.43-71.48,59.43-20.22,0-38.48-6.98-51.48-18.2-5.96,27.81-35.19,48.92-70.36,48.92-33.02,0-60.81-18.63-69.02-43.93-12.27,8.26-27.91,13.21-44.93,13.21C32,231.53,0,204.92,0,172.09c0-19.45,11.23-36.71,28.6-47.55-11.96-10.62-19.27-24.9-19.27-40.6,0-32.82,32-59.43,71.48-59.43,14.7,0,28.36,3.69,39.72,10.01C131.85,14.14,156.65,0,185.42,0s54.37,14.59,65.44,35.5c11.69-6.92,25.99-11,41.43-11,39.47,0,71.48,26.61,71.48,59.43,0,14.73-6.44,28.2-17.1,38.57,19.31,10.64,32.06,28.87,32.06,49.58Z"/>
  </g>
  <g id="Layer_3" data-name="Layer 3">
    <g>
      <g>
        <path class="cls-3" d="m161.08,188.04c3.95,8.16,3.84,12.76-.71,14.88-9.34,4.37-16.31-7.92-32.39-32.14-15.6-23.52-20.54-33.16-14.74-37.58.4-.31.87-.59,1.38-.85.72-.36,1.42-.64,2.09-.81h0c4.26-1.1,7.82,1.59,12.44,7.55l.35-.07c.79,5.31,4.76,13.01,12.19,23.88,9.26,13.56,13.85,22.49,19.39,25.13Z"/>
        <path class="cls-3" d="m271.55,133.57c6.36,4.25,1.69,13.22-14.22,37.21-16.08,24.22-23.06,36.5-32.39,32.14-4.54-2.11-4.66-6.68-.76-14.79,5.35-3.4,10.74-12.12,19.34-24.82,8.56-12.63,13.14-20.22,13.47-25.13h.1c4.18-5.4,6.82-7.17,10.28-6.41.97.2,2.01.62,3.17,1.21.37.19.7.39,1.02.59Z"/>
        <path class="cls-3" d="m110.11,123.12c6.61-114.65,165.9-95.52,164.18-.98h-1.46s-5.42.05-5.42.05h-1.97c-5.71-84.91-132.79-99.1-146.43.87h-1.84s-5.23.05-5.23.05h-1.83Z"/>
        <path class="cls-2" d="m161.08,188.04c-5.54-2.64-10.12-11.57-19.39-25.13-7.43-10.87-11.4-18.57-12.19-23.88-.76-5.19,1.51-8.1,6.56-9.46,12.37-3.33,21.67,12.43,27.57,22.6,12.16,20.92,17.15,29.91,7.08,35.01-3.9,1.97-6.89,2.2-9.63.86Z"/>
        <path class="cls-2" d="m224.18,188.13c-2.97,1.92-5.93,2.17-9.42.53-8.33-3.89-9.23-15.57,5.26-35.82,16.61-23.22,23.13-26.09,32.59-21.35,3.15,1.58,4.59,3.62,4.38,6.69-.34,4.91-4.91,12.5-13.47,25.13-8.6,12.7-13.99,21.42-19.34,24.82Z"/>
      </g>
      <g>
        <path class="cls-4" d="m257.09,138.19c4.18-5.41,6.82-7.18,10.28-6.42.97.2,2.01.62,3.17,1.21.37.19.7.39,1.02.59,6.36,4.25,1.69,13.22-14.22,37.21-16.08,24.22-23.06,36.5-32.39,32.14-4.54-2.11-4.66-6.68-.76-14.79.02-.03.03-.07.05-.1"/>
        <path class="cls-4" d="m224.18,188.13c-2.97,1.92-5.93,2.17-9.42.53-8.33-3.89-9.23-15.57,5.26-35.82,16.61-23.22,23.13-26.09,32.59-21.35,3.15,1.58,4.59,3.62,4.38,6.69-.34,4.91-4.91,12.5-13.47,25.13-8.6,12.7-13.99,21.42-19.34,24.82Z"/>
        <path class="cls-4" d="m116.7,131.54c-.67.17-1.37.44-2.09.81-.51.26-.97.54-1.38.85-5.8,4.42-.86,14.06,14.74,37.58,16.07,24.22,23.05,36.5,32.39,32.14,4.56-2.12,4.66-6.71.71-14.88,0,0,0-.01,0-.01"/>
        <path class="cls-4" d="m129.15,139.1c-4.62-5.96-8.19-8.65-12.44-7.56"/>
        <path class="cls-4" d="m161.08,188.04c2.74,1.34,5.73,1.11,9.63-.86,10.07-5.09,5.09-14.08-7.08-35.01-5.9-10.17-15.21-25.93-27.57-22.6-5.05,1.36-7.32,4.26-6.56,9.46.79,5.31,4.76,13.01,12.19,23.88,9.26,13.56,13.85,22.49,19.39,25.13Z"/>
        <path class="cls-4" d="m272.83,122.16h1.46c1.71-94.55-157.58-113.68-164.18.96h1.83s5.23-.05,5.23-.05h1.84c13.64-99.98,140.71-85.8,146.43-.87h1.97s5.42-.05,5.42-.05Z"/>
        <path class="cls-4" d="m111.94,123.19c.02,2.23-.05,4.41-.04,6.65,0,.54.1,1.32.24,1.91.13.53.37,1.25.99,1.29"/>
        <path class="cls-4" d="m117.17,123.19c-.04,2.34-.07,4.89-.11,7.22,0,.45,0,.81-.36,1.12h0"/>
        <path class="cls-4" d="m272.83,122.36c.09,3.11.04,6.21-.16,9.32-.03.39-.06.79-.22,1.16-.16.35-.48.65-.9.74-.02.01-.04.02-.06.02"/>
        <path class="cls-4" d="m267.41,122.38c0,3.1-.02,6.18-.03,9.28"/>
      </g>
    </g>
    <path class="cls-6" d="m83.12,144.06c-3.44,2.93-7.98,3.77-10.11,1.88-1.61-1.41-1.42-3.95.21-6.36.55-.82,1.27-1.63,2.14-2.37,1.27-1.08,2.69-1.88,4.07-2.35l-5.47-18.69s-20.33,5.95-20.33,5.95l3.9,13.31c.47,1.6.86,3.22,1.32,4.82.32,1.12.92,2.19.89,3.4s-.4,2.59-.99,3.7c-.64,1.2-1.58,2.31-2.68,3.25-3.45,2.93-7.97,3.78-10.12,1.88-2.15-1.89-1.09-5.8,2.36-8.73,1.45-1.24,3.1-2.1,4.69-2.55l-6.67-22.78s31.78-9.3,31.78-9.3c1.54,5.26,3.08,10.51,4.62,15.77l1.76,6.02c.23.77.47,1.54.68,2.32.42,1.52,1.3,3.04,1.41,4.63.15,2.24-1.57,4.62-3.44,6.21Z"/>
    <path class="cls-6" d="m309.35,50.24c6.21-.54,13.72,1.9,14.62,6.45.09.47.13.94.12,1.4-.02,1.02-1.35,1.53-2.11.79-2.16-2.11-5.73-3.18-9.45-2.54-1.06.18-2.06.49-2.97.9v19.94h-.12c.07,2.89-2.22,6.18-6,8.23-4.94,2.65-10.57,2.18-12.58-1.07-2.01-3.25.37-8.03,5.3-10.68,2.58-1.4,5.36-1.93,7.71-1.65v-16.65c0-2.83,2.47-5.13,5.51-5.13h.18"/>
    <path class="cls-5" d="m299.3,158.69l8.32,20.97-.3.32c-4.5-1.38-9.44-.05-12.84,3.59-3.97,4.25-3.39,9.91,1.31,12.64,4.69,2.73,11.72,1.51,15.69-2.74,3.23-3.45,4.83-7.5,3.23-10.69h0l-9.95-25.5"/>
    <line class="cls-8" x1="304.75" y1="157.28" x2="299.3" y2="158.69"/>
    <rect class="cls-7" x="269.41" y="125.03" width="1.95" height="6.66" transform="translate(545.7 245.78) rotate(177.7)"/>
    <rect class="cls-7" x="113.13" y="124.87" width="1.95" height="5.34"/>
  </g>
</svg>