<?xml version="1.0" encoding="utf-8"?>
<!-- Generator: Adobe Illustrator 27.3.1, SVG Export Plug-In . SVG Version: 6.00 Build 0)  -->
<svg version="1.1" id="Layer_2_00000062158830052070127590000016661594051815837630_"
	 xmlns="http://www.w3.org/2000/svg" xmlns:xlink="http://www.w3.org/1999/xlink" x="0px" y="0px" viewBox="0 0 378.7 262.2"
	 style="enable-background:new 0 0 378.7 262.2;" xml:space="preserve">
<style type="text/css">
	.st0{fill:#FFFFFF;}
	.st1{fill:#FFFFFF;stroke:#000000;stroke-width:4;stroke-miterlimit:10;}
	.st2{fill:#629FFF;stroke:#000000;stroke-width:4;stroke-miterlimit:10;}
	.st3{fill:none;stroke:#000000;stroke-width:5;stroke-linecap:round;stroke-miterlimit:10;}
</style>
<g id="cloud">
	<path class="st0" d="M378.7,172.1c0,32.8-32,59.4-71.5,59.4c-20.2,0-38.5-7-51.5-18.2c-6,27.8-35.2,48.9-70.4,48.9
		c-33,0-60.8-18.6-69-43.9c-12.3,8.3-27.9,13.2-44.9,13.2C32,231.5,0,204.9,0,172.1c0-19.4,11.2-36.7,28.6-47.6
		c-12-10.6-19.3-24.9-19.3-40.6c0-32.8,32-59.4,71.5-59.4c14.7,0,28.4,3.7,39.7,10C131.9,14.1,156.6,0,185.4,0s54.4,14.6,65.4,35.5
		c11.7-6.9,26-11,41.4-11c39.5,0,71.5,26.6,71.5,59.4c0,14.7-6.4,28.2-17.1,38.6C366,133.1,378.7,151.4,378.7,172.1L378.7,172.1z"/>
</g>
<g id="palm">
	<path class="st1" d="M148.2,71.5c-4.9,1.8-9.7,4.3-14.4,7.7c0.1-0.8,0.2-1.6,0.4-2.4c2-8.8,9.3-15.9,19.2-20
		c-9.9-0.9-20.8,1.1-32.1,8.4c0.1-0.7,0.2-1.5,0.4-2.2c3.2-14.3,20.5-24.1,38.6-21.8c3.9,0.5,7.6,1.5,10.9,2.9
		c1.5,0.7,2.9,1.4,4.2,2.2c-2.1-5.5-7-11-16.4-16c0.7-0.1,1.4-0.1,2.1-0.1c13.8-0.6,27.5,7.4,30.7,17.9c3-0.3,6.1-0.3,9.3,0.1
		c18.2,2.2,30.1,16.3,26.8,30.7c-2.7-2.1-5.8-4.4-9.2-6.4c-0.3-0.2-0.6-0.4-0.9-0.6c-0.9-0.6-1.9-1.1-2.9-1.6
		c-0.8-0.4-1.7-0.9-2.5-1.3c-0.7-0.3-1.4-0.6-2.1-0.9c-0.6-0.3-1.2-0.5-1.9-0.8c4.6,5.6,6.7,12.4,5.1,19.3c0,0.2-0.1,0.4-0.1,0.6
		c-5.4-6.7-14.4-12.9-25.3-16.4l2,35.6l2,34.6l-26-0.3l2-32l2.5-40.9C163.4,67.6,155.8,68.7,148.2,71.5z"/>
	<path class="st2" d="M324.1,163.9c-17.1,12.2-41.1,15-60.8,7.1c-9.5-3.8-19.4-10-29.2-7.2c-4.3,1.2-7.8,4.1-11.6,6.3
		c-6.6,3.8-14.3,5.8-21.9,5.6c-12.2-0.2-23.6-5.5-35.4-8.3c-9.8-2.3-20-2.8-30-1.5c-9.7,1.3-19.2,4.2-28.9,5.6
		c-11,1.6-19.1-0.6-29.5-3.3c1.5-15.5,17.4-29.5,30.1-37.7c18.1-11.8,39.7-18.5,61.2-21.9l-2,32l26,0.3l-2-34.6
		c3.6-0.2,7.3-0.3,11-0.3c41.8,0,108.5,12.9,122.9,57.3L324.1,163.9z"/>
	<path class="st3" d="M326.3,179.3c-3.1,1-5.9,2.2-8.4,3.4c-5.1,2.6-10.2,5.4-15.8,6.8s-12.4,1.2-18.3,0.7
		c-4.4-0.4-8.7-1.4-12.9-2.6c-8.1-2.5-14.9-5.8-23.2-8.3c-2.7-0.8-5.9-1.6-9.1-1.4c-6.3,0.3-9.5,3.5-13.1,5.9
		c-4.3,2.9-11,4.9-18.4,5.7c-4.6,0.6-9.5,0.6-14.2,0.2c-1-0.1-2-0.2-3-0.4c-8.1-1.1-15.2-3.6-22.3-5.7c-8.1-2.4-17.4-4.5-26.9-3.9
		c-10.8,0.7-19.1,4.8-29.4,6.4c-10.5,1.6-22.3,0.6-32.2-1.7c-1.5-0.4-3-0.7-4.4-1.1"/>
	<g>
		<path class="st0" d="M246.5,151.3c-1.7,0-3.2-1.2-3.4-3l-0.5-3.2c0-0.2-0.2-0.4-0.4-0.6l-2.9-1.5c-1.2-0.6-1.9-1.8-1.9-3.1
			s0.7-2.5,1.9-3.1l3-1.5c0.1-0.1,0.2-0.2,0.2-0.3l0.4-2.8c0.2-1.9,1.8-3.2,3.7-3.2c1,0,1.9,0.4,2.6,1.1l2,2.1
			c0.1,0.1,0.2,0.1,0.3,0.1l3.4-0.6c0.2,0,0.4-0.1,0.6-0.1c1.2,0,2.3,0.6,2.9,1.7c0.6,1,0.7,2.3,0.1,3.4l-1.5,2.9
			c-0.1,0.2-0.1,0.5,0,0.7l1.5,2.9c0.6,1.1,0.5,2.4-0.1,3.4s-1.7,1.6-2.9,1.6c-0.2,0-0.4,0-0.6-0.1l-3.2-0.6h-0.1
			c-0.2,0-0.4,0.1-0.5,0.2l-2.2,2.3C248.3,150.9,247.4,151.3,246.5,151.3L246.5,151.3z"/>
		<path d="M246.5,130.6c0.6,0,1.1,0.2,1.6,0.7l2,2.1c0.4,0.4,0.9,0.6,1.4,0.6c0.1,0,0.2,0,0.3,0l3.3-0.6c0.1,0,0.2,0,0.3,0
			c1.4,0,2.4,1.6,1.7,2.9l-1.4,2.9c-0.3,0.6-0.3,1.4,0,2.1l1.5,2.9c0.7,1.3-0.3,2.9-1.7,2.9c-0.1,0-0.2,0-0.4,0l-3.2-0.6
			c-0.1,0-0.2,0-0.4,0c-0.6,0-1.1,0.2-1.6,0.7l-2.2,2.3c-0.4,0.4-0.9,0.6-1.4,0.6c-0.9,0-1.8-0.6-1.9-1.7l-0.5-3.2
			c-0.1-0.7-0.6-1.3-1.2-1.7l-2.9-1.5c-1.4-0.7-1.5-2.8,0-3.5l3-1.5c0.6-0.3,1-0.8,1-1.5l0.4-2.8
			C244.5,131.3,245.5,130.6,246.5,130.6 M246.5,127.6L246.5,127.6c-2.6,0-4.8,1.9-5.1,4.5l-0.3,2.3l-2.5,1.2
			c-1.7,0.8-2.7,2.5-2.7,4.4s1.1,3.6,2.8,4.5l2.6,1.3l0.4,2.9c0.4,2.5,2.4,4.2,4.9,4.2c1.3,0,2.6-0.5,3.5-1.5l1.9-2l2.7,0.5
			c0.3,0.1,0.6,0.1,0.9,0.1c1.7,0,3.3-0.9,4.2-2.4c0.9-1.5,1-3.3,0.1-4.9l-1.4-2.6l1.3-2.5c0.8-1.6,0.7-3.4-0.2-4.9
			c-0.9-1.5-2.5-2.4-4.2-2.4c-0.3,0-0.6,0-0.8,0.1l-2.7,0.5l-1.6-1.7C249.2,128.2,247.9,127.6,246.5,127.6L246.5,127.6L246.5,127.6z
			"/>
	</g>
</g>
</svg>
