<?xml version="1.0" encoding="UTF-8"?>
<svg id="Layer_2" data-name="Layer 2" xmlns="http://www.w3.org/2000/svg" viewBox="0 0 378.73 262.25">
  <defs>
    <style>
      .cls-1 {
        fill: #fff;
      }

      .cls-2 {
        fill: #629fff;
      }

      .cls-3 {
        stroke-miterlimit: 10;
      }

      .cls-3, .cls-4 {
        fill: none;
        stroke: #000;
        stroke-width: 4px;
      }

      .cls-4 {
        stroke-linejoin: round;
      }
    </style>
  </defs>
  <g id="cloud">
    <path class="cls-1" d="m378.73,172.09c0,32.82-32,59.43-71.48,59.43-20.22,0-38.48-6.98-51.48-18.2-5.96,27.81-35.19,48.92-70.36,48.92-33.02,0-60.81-18.63-69.02-43.93-12.27,8.26-27.91,13.21-44.93,13.21C32,231.53,0,204.92,0,172.09c0-19.45,11.23-36.71,28.6-47.55-11.96-10.62-19.27-24.9-19.27-40.6,0-32.82,32-59.43,71.48-59.43,14.7,0,28.36,3.69,39.72,10.01C131.85,14.14,156.65,0,185.42,0s54.37,14.59,65.44,35.5c11.69-6.92,25.99-11,41.43-11,39.47,0,71.48,26.61,71.48,59.43,0,14.73-6.44,28.2-17.1,38.57,19.31,10.64,32.06,28.87,32.06,49.58Z"/>
  </g>
  <g id="Layer_4" data-name="Layer 4">
    <g>
      <g>
        <path class="cls-1" d="m176.65,86.07c1.22,1.82-.83,3.84-3.89,3.84h-56.67c-3.06,0-5.11-2.02-3.89-3.84l28.33-42.12c1.48-2.2,6.3-2.2,7.78,0l28.34,42.12Z"/>
        <path class="cls-2" d="m322.2,203.41h-125.61c4.6-24.42,18.39-58.74,33.31-80.21v-.11c2.71.31,5.11.63,6.85.93l-3.78,5.7c-1.03,1.56-.04,3.25,1.96,4.05.73.29,1.59.45,2.53.45h4.5l-14.95,19.41c-1.65,2.14.72,4.67,4.37,4.67h28.48v34.55h20.72v-34.55h21.2c12.91,12.97,20.42,28.47,20.42,45.11Z"/>
        <path class="cls-1" d="m301.78,158.3h-70.4c-3.65,0-6.02-2.53-4.37-4.67l14.95-19.41h56.51l14.96,19.41c1.44,1.87-.17,4.03-3.03,4.55-.43.08-.88.12-1.35.12h-7.27Z"/>
        <path class="cls-1" d="m307.47,129.72c1.41,2.13-.97,4.5-4.5,4.5h-65.51c-.94,0-1.8-.16-2.53-.45-2-.8-2.99-2.49-1.96-4.05l3.78-5.7.35-.53,28.62-43.2c1.71-2.58,7.28-2.58,8.99,0l32.76,49.43Z"/>
        <rect class="cls-1" x="259.86" y="158.3" width="20.72" height="34.55"/>
        <path class="cls-1" d="m229.91,123.09v.11c-14.93,21.47-28.72,55.79-33.32,80.21h-75.15c22.18-31.76,52.07-59.92,87.45-82.23,4.81.32,13.95,1.09,21.02,1.91Z"/>
        <path class="cls-2" d="m196.12,120.76c4.31,0,8.57.15,12.77.42-35.38,22.31-65.27,50.47-87.45,82.23h-51.93c-.13-22.73,13.75-43.34,36.3-58.34-.3,1.06-.42,2.17-.3,3.28.35,3.22,3.05,6.19,6.26,6.17,13.11-.06,26.23-.12,39.35-.18,3.16-.02,6.03-3.01,5.95-6.2-.08-3.2-3.11-5.96-6.58-5.5.74-.77,1.26-1.73,1.53-2.77h1.37v-14.23c13.34-3.16,27.73-4.88,42.73-4.88Z"/>
        <path class="cls-1" d="m181.81,106.45c1.43,1.82-.62,3.98-3.79,3.98h-67.2c-3.16,0-5.21-2.16-3.78-3.98l12.94-16.54h48.88l12.95,16.54Z"/>
        <path class="cls-1" d="m105.81,145.07c.24-.87.6-1.71,1.05-2.5.62-1.07,1.4-2.06,2.29-2.9,2.35-2.23,5.37-3.62,8.39-4.73-1.6-3.64-.31-8.38,2.93-10.72,3.24-2.35,8.08-2.05,10.95.67.86-1.58,2.36-2.72,4.04-3.29.55-.19,1.11-.31,1.68-.37,1.46-.16,2.96.1,4.22.86,3.27,1.97,4.35,6.87,2.23,10.12,2.7-1.1,6.07-.08,7.66,2.34.86,1.3,1.16,2.93.95,4.48-.04.28-.1.56-.18.84-.27,1.04-.79,2-1.53,2.77,3.47-.46,6.5,2.3,6.58,5.5.08,3.19-2.79,6.18-5.95,6.2-13.12.06-26.24.12-39.35.18-3.21.02-5.91-2.95-6.26-6.17-.12-1.11,0-2.22.3-3.28Z"/>
        <path class="cls-1" d="m153.39,125.64v14.23h-1.37c.08-.28.14-.56.18-.84.21-1.55-.09-3.18-.95-4.48-1.59-2.42-4.96-3.44-7.66-2.34,2.12-3.25,1.04-8.15-2.23-10.12-1.26-.76-2.76-1.02-4.22-.86-.57.06-1.13.18-1.68.37v-11.17h17.93v15.21Z"/>
      </g>
      <g>
        <path class="cls-3" d="m119.98,89.91h-3.89c-3.06,0-5.11-2.02-3.89-3.84l28.33-42.12c1.48-2.2,6.3-2.2,7.78,0l28.34,42.12c1.22,1.82-.83,3.84-3.89,3.84h-3.9"/>
        <path class="cls-3" d="m135.46,110.43h-24.64c-3.16,0-5.21-2.16-3.78-3.98l12.94-16.54h48.88l12.95,16.54c1.43,1.82-.62,3.98-3.79,3.98h-24.63"/>
        <path class="cls-3" d="m241.96,134.22h-4.5c-.94,0-1.8-.16-2.53-.45-2-.8-2.99-2.49-1.96-4.05l3.78-5.7.35-.53,28.62-43.2c1.71-2.58,7.28-2.58,8.99,0l32.76,49.43c1.41,2.13-.97,4.5-4.5,4.5h-4.5"/>
        <polyline class="cls-3" points="280.58 158.3 280.58 192.85 259.86 192.85 259.86 158.3"/>
        <path class="cls-3" d="m298.47,134.22l14.96,19.41c1.44,1.87-.17,4.03-3.03,4.55-.43.08-.88.12-1.35.12h-77.67c-3.65,0-6.02-2.53-4.37-4.67l14.95-19.41h56.51Z"/>
        <polyline class="cls-3" points="152.02 139.87 153.39 139.87 153.39 125.64 153.39 110.43 135.46 110.43 135.46 121.6"/>
        <path class="cls-3" d="m236.75,124.02c-1.74-.3-4.14-.62-6.84-.93-7.07-.82-16.21-1.59-21.02-1.91-4.2-.27-8.46-.42-12.77-.42-15,0-29.39,1.72-42.73,4.88"/>
        <path class="cls-3" d="m105.86,145.04s-.03.02-.05.03c-22.55,15-36.43,35.61-36.3,58.34h252.69c0-16.64-7.51-32.14-20.42-45.11l-.12-.12"/>
        <path class="cls-3" d="m121.44,203.41c22.18-31.76,52.07-59.92,87.45-82.23"/>
        <path class="cls-3" d="m196.59,203.41c4.6-24.42,18.39-58.74,33.31-80.21"/>
        <path class="cls-4" d="m152.02,139.87c-.27,1.04-.79,2-1.53,2.77,3.47-.46,6.5,2.3,6.58,5.5.08,3.19-2.79,6.18-5.95,6.2-13.12.06-26.24.12-39.35.18-3.21.02-5.91-2.95-6.26-6.17-.12-1.11,0-2.22.3-3.28.24-.87.6-1.71,1.05-2.5.62-1.07,1.4-2.06,2.29-2.9,2.35-2.23,5.37-3.62,8.39-4.73-1.6-3.64-.31-8.38,2.93-10.72,3.24-2.35,8.08-2.05,10.95.67.86-1.58,2.36-2.72,4.04-3.29.55-.19,1.11-.31,1.68-.37,1.46-.16,2.96.1,4.22.86,3.27,1.97,4.35,6.87,2.23,10.12,2.7-1.1,6.07-.08,7.66,2.34.86,1.3,1.16,2.93.95,4.48-.04.28-.1.56-.18.84Z"/>
      </g>
    </g>
  </g>
</svg>