<?xml version="1.0" encoding="UTF-8"?>
<svg id="Layer_2" data-name="Layer 2" xmlns="http://www.w3.org/2000/svg" viewBox="0 0 378.73 262.25">
  <defs>
    <style>
      .cls-1, .cls-2 {
        fill: #fff;
      }

      .cls-3 {
        fill: #629fff;
      }

      .cls-4 {
        fill: #4cdaf5;
      }

      .cls-5 {
        stroke-miterlimit: 10;
      }

      .cls-5, .cls-6 {
        fill: none;
      }

      .cls-5, .cls-6, .cls-2 {
        stroke: #000;
        stroke-width: 4px;
      }

      .cls-6, .cls-2 {
        stroke-linejoin: round;
      }
    </style>
  </defs>
  <g id="cloud">
    <path class="cls-1" d="m378.73,172.09c0,32.82-32,59.43-71.48,59.43-20.22,0-38.48-6.98-51.48-18.2-5.96,27.81-35.19,48.92-70.36,48.92-33.02,0-60.81-18.63-69.02-43.93-12.27,8.26-27.91,13.21-44.93,13.21C32,231.53,0,204.92,0,172.09c0-19.45,11.23-36.71,28.6-47.55-11.96-10.62-19.27-24.9-19.27-40.6,0-32.82,32-59.43,71.48-59.43,14.7,0,28.36,3.69,39.72,10.01C131.85,14.14,156.65,0,185.42,0s54.37,14.59,65.44,35.5c11.69-6.92,25.99-11,41.43-11,39.47,0,71.48,26.61,71.48,59.43,0,14.73-6.44,28.2-17.1,38.57,19.31,10.64,32.06,28.87,32.06,49.58Z"/>
  </g>
  <g id="Layer_3" data-name="Layer 3">
    <path class="cls-2" d="m283.38,175.99c3.61,2.22,4.78,7.03,2.62,10.74-1.45,2.5-4.05,3.86-6.69,3.81-.12,1.06-.46,2.11-1.02,3.08-2.16,3.71-6.84,4.92-10.45,2.7-3.12-1.92-4.42-5.76-3.32-9.16-1.73-2.46-1.98-5.85-.37-8.62,2.16-3.71,6.84-4.91,10.45-2.69.21.13.4.26.59.4,2.38-1.66,5.57-1.86,8.2-.24Z"/>
    <g>
      <g>
        <path class="cls-1" d="m154.37,209.18c3.68,2.56,4.17,6.91,1.1,9.71-.17.16-.35.31-.54.45,1.4,2.4,1.05,5.26-1.19,7.29-3.07,2.8-8.54,2.99-12.22.42-2.48-1.73-3.51-4.27-2.99-6.59-1.13-.3-2.22-.78-3.18-1.45-3.68-2.57-4.18-6.92-1.11-9.72,2.66-2.42,7.1-2.89,10.63-1.32,3-1.09,6.75-.71,9.5,1.21Z"/>
        <path class="cls-1" d="m112.25,163.12c4.36,1.03,6.42,4.9,4.6,8.63-1.58,3.22-5.53,5.29-9.39,5.13-2.39,2.13-6.02,3.16-9.29,2.38-4.36-1.03-6.42-4.89-4.59-8.62.1-.22.21-.42.33-.62-2.18-1.72-2.9-4.5-1.58-7.22,1.83-3.73,6.85-5.92,11.22-4.88,2.94.69,4.83,2.67,5.2,5.02,1.16-.14,2.35-.09,3.5.18Z"/>
        <path class="cls-1" d="m236.64,81.81c2.85,1.17,4.56,3.64,4.11,6.48-.22,1.39-.93,2.68-1.98,3.76-1.78-1.21-4.11-2-6.71-2.14-.07,0-.13,0-.2,0l-.73-.03c-3.1-.12-6.22.62-8.58,1.97-.03.02-.07.04-.11.06-2.22,1.31-3.75,3.15-3.91,5.32l-.02.34v-.34c0-2.24-1.24-4.27-3.24-5.74s-4.76-2.38-7.82-2.38c-6.1,0-11.05,3.63-11.05,8.12,0-2.24-1.24-4.27-3.24-5.74s-4.76-2.38-7.82-2.38c-6.1,0-11.05,3.63-11.05,8.12,0-2.24-1.24-4.27-3.24-5.74-.83-.61-1.79-1.13-2.86-1.52-1.11-.41-2.33-.69-3.63-.8-.43-.04-.88-.06-1.33-.06-3.15,0-5.99.97-8.01,2.52-1.76,1.36-2.89,3.17-3.03,5.17-.02.02-.04.04-.06.05-.64-4.27-6.63-7.2-12.56-6.97l-.73.03c-3.63.15-6.76,1.57-8.62,3.64-1.14-2.97.45-6.54,4.06-8.58.24-.13.48-.26.72-.37-.29-2.64,1.32-5.49,4.39-7.22,2.88-1.63,6.31-1.85,8.97-.82.11-.02.21-.05.32-.07.33-.74.76-1.42,1.3-2.03-1.08-1.33-1.72-3.01-1.72-4.84,0-3.74,2.66-6.86,6.24-7.64,1.22-2.79,4.05-4.75,7.36-4.75,1.28,0,2.5.3,3.58.83-1.01-2.85-.29-6.14,2.12-8.31,2.79-2.54,6.95-2.75,9.96-.72,2.92-1.02,6.32-.31,8.56,2.06,1.75,1.84,2.41,4.29,2.03,6.59.47-.21.96-.37,1.48-.48,1.22-2.79,4.06-4.75,7.36-4.75,4.42,0,8,3.5,8,7.83,0,.24-.01.48-.04.72,1.24.57,2.32,1.44,3.11,2.51,2.54-2.23,6.37-2.69,9.45-.89.22.13.43.26.62.4,2.5-1.66,5.85-1.86,8.61-.24,3.79,2.22,5.02,7.03,2.75,10.74-.1.16-.2.32-.31.47,4.84.12,8.25,3.31,7.64,7.18-.04.22-.08.44-.14.65Z"/>
        <path class="cls-3" d="m238.77,92.05c2.33,1.59,3.71,3.89,3.53,6.41l-7.35,98.23h-16.44v-99.13l.02-.34c.16-2.17,1.69-4.01,3.91-5.32.04-.02.08-.04.11-.06,2.36-1.35,5.48-2.09,8.58-1.97l.73.03c.07,0,.13,0,.2,0,2.6.14,4.93.93,6.71,2.14Z"/>
        <path class="cls-1" d="m218.51,97.56v99.13h-22.11v-99.47c0-4.49,4.95-8.12,11.05-8.12,3.06,0,5.82.91,7.82,2.38s3.24,3.5,3.24,5.74v.34Z"/>
        <path class="cls-4" d="m196.4,97.22v99.47h-22.11v-99.47c0-4.49,4.95-8.12,11.05-8.12,3.06,0,5.82.91,7.82,2.38s3.24,3.5,3.24,5.74Z"/>
        <path class="cls-1" d="m174.29,97.22v99.47h-22.12v-99.47c0-.14,0-.28.02-.43.14-2,1.27-3.81,3.03-5.17,2.02-1.55,4.86-2.52,8.01-2.52.45,0,.9.02,1.33.06,1.3.11,2.52.39,3.63.8,1.07.39,2.03.91,2.86,1.52,2,1.47,3.24,3.5,3.24,5.74Z"/>
        <path class="cls-3" d="m152.17,97.22v99.47h-16.41l-7.35-98.23c-.14-1.81.55-3.52,1.81-4.92,1.86-2.07,4.99-3.49,8.62-3.64l.73-.03c5.93-.23,11.92,2.7,12.56,6.97.02.13.03.25.04.38Z"/>
      </g>
      <g>
        <line class="cls-5" x1="196.4" y1="196.69" x2="174.29" y2="196.69"/>
        <polyline class="cls-5" points="218.51 196.69 196.4 196.69 196.4 97.22"/>
        <path class="cls-5" d="m238.77,92.05c2.33,1.59,3.71,3.89,3.53,6.41l-7.35,98.23h-16.44v-99.13"/>
        <path class="cls-5" d="m152.17,97.22c0-.14,0-.28.02-.43"/>
        <polyline class="cls-5" points="174.29 97.22 174.29 196.69 152.17 196.69"/>
        <path class="cls-5" d="m152.13,96.84c.02.13.03.25.04.38v99.47h-16.41l-7.35-98.23c-.14-1.81.55-3.52,1.81-4.92"/>
        <path class="cls-6" d="m130.22,93.54c-1.14-2.97.45-6.54,4.06-8.58.24-.13.48-.26.72-.37-.29-2.64,1.32-5.49,4.39-7.22,2.88-1.63,6.31-1.85,8.97-.82.11-.02.21-.05.32-.07.33-.74.76-1.42,1.3-2.03-1.08-1.33-1.72-3.01-1.72-4.84,0-3.74,2.66-6.86,6.24-7.64,1.22-2.79,4.05-4.75,7.36-4.75,1.28,0,2.5.3,3.58.83-1.01-2.85-.29-6.14,2.12-8.31,2.79-2.54,6.95-2.75,9.96-.72,2.92-1.02,6.32-.31,8.56,2.06,1.75,1.84,2.41,4.29,2.03,6.59.47-.21.96-.37,1.48-.48,1.22-2.79,4.06-4.75,7.36-4.75,4.42,0,8,3.5,8,7.83,0,.24-.01.48-.04.72,1.24.57,2.32,1.44,3.11,2.51,2.54-2.23,6.37-2.69,9.45-.89.22.13.43.26.62.4,2.5-1.66,5.85-1.86,8.61-.24,3.79,2.22,5.02,7.03,2.75,10.74-.1.16-.2.32-.31.47,4.84.12,8.25,3.31,7.64,7.18-.04.22-.08.44-.14.65,2.85,1.17,4.56,3.64,4.11,6.48-.22,1.39-.93,2.68-1.98,3.76-1.78-1.21-4.11-2-6.71-2.14-.07,0-.13,0-.2,0l-.73-.03c-3.1-.12-6.22.62-8.58,1.97-.03.02-.07.04-.11.06-2.22,1.31-3.75,3.15-3.91,5.32l-.02.34v-.34c0-2.24-1.24-4.27-3.24-5.74s-4.76-2.38-7.82-2.38c-6.1,0-11.05,3.63-11.05,8.12,0-2.24-1.24-4.27-3.24-5.74s-4.76-2.38-7.82-2.38c-6.1,0-11.05,3.63-11.05,8.12,0-2.24-1.24-4.27-3.24-5.74-.83-.61-1.79-1.13-2.86-1.52-1.11-.41-2.33-.69-3.63-.8-.43-.04-.88-.06-1.33-.06-3.15,0-5.99.97-8.01,2.52-1.76,1.36-2.89,3.17-3.03,5.17-.02.02-.04.04-.06.05-.64-4.27-6.63-7.2-12.56-6.97l-.73.03c-3.63.15-6.76,1.57-8.62,3.64Z"/>
        <path class="cls-6" d="m153.74,226.63c-3.07,2.8-8.54,2.99-12.22.42-2.48-1.73-3.51-4.27-2.99-6.59-1.13-.3-2.22-.78-3.18-1.45-3.68-2.57-4.18-6.92-1.11-9.72,2.66-2.42,7.1-2.89,10.63-1.32,3-1.09,6.75-.71,9.5,1.21,3.68,2.56,4.17,6.91,1.1,9.71-.17.16-.35.31-.54.45,1.4,2.4,1.05,5.26-1.19,7.29Z"/>
        <path class="cls-6" d="m92.33,162.8c1.83-3.73,6.85-5.92,11.22-4.88,2.94.69,4.83,2.67,5.2,5.02,1.16-.14,2.35-.09,3.5.18,4.36,1.03,6.42,4.9,4.6,8.63-1.58,3.22-5.53,5.29-9.39,5.13-2.39,2.13-6.02,3.16-9.29,2.38-4.36-1.03-6.42-4.89-4.59-8.62.1-.22.21-.42.33-.62-2.18-1.72-2.9-4.5-1.58-7.22Z"/>
      </g>
    </g>
  </g>
</svg>