<?xml version="1.0" encoding="UTF-8"?>
<svg id="Layer_2" data-name="Layer 2" xmlns="http://www.w3.org/2000/svg" viewBox="0 0 378.73 262.25">
  <defs>
    <style>
      .cls-1 {
        fill: #fff;
      }

      .cls-2 {
        fill: #629fff;
      }

      .cls-3 {
        fill: #4cdaf5;
      }

      .cls-4 {
        stroke-linejoin: round;
        stroke-width: 8px;
      }

      .cls-4, .cls-5 {
        fill: none;
        stroke: #000;
        stroke-linecap: round;
      }

      .cls-5 {
        stroke-miterlimit: 10;
        stroke-width: 5px;
      }
    </style>
  </defs>
  <g id="cloud">
    <path class="cls-1" d="m378.73,172.09c0,32.82-32,59.43-71.48,59.43-20.22,0-38.48-6.98-51.48-18.2-5.96,27.81-35.19,48.92-70.36,48.92-33.02,0-60.81-18.63-69.02-43.93-12.27,8.26-27.91,13.21-44.93,13.21C32,231.53,0,204.92,0,172.09c0-19.45,11.23-36.71,28.6-47.55-11.96-10.62-19.27-24.9-19.27-40.6,0-32.82,32-59.43,71.48-59.43,14.7,0,28.36,3.69,39.72,10.01C131.85,14.14,156.65,0,185.42,0s54.37,14.59,65.44,35.5c11.69-6.92,25.99-11,41.43-11,39.47,0,71.48,26.61,71.48,59.43,0,14.73-6.44,28.2-17.1,38.57,19.31,10.64,32.06,28.87,32.06,49.58Z"/>
  </g>
  <g id="Layer_3" data-name="Layer 3">
    <g>
      <g>
        <path class="cls-3" d="m338.43,189.48c.63.64.21,1.79-.66,1.79h-109.18c1.6,0,2.53-1.82,1.59-3.12l-35.42-49.25,1.67-1.2,12.02-8.22,6.57,6.8,20.88-5.69,17.44,12.65,17.22-13.91,11.78,3.72h.01l56.08,56.43Z"/>
        <path class="cls-1" d="m253.24,103.77l29.1,29.28-11.78-3.72-17.22,13.91-17.44-12.65-20.88,5.69-6.57-6.8,6.53-4.46,31.08-21.25c1.98-1.99,5.21-1.99,7.18,0Z"/>
        <path class="cls-2" d="m230.18,188.15c.94,1.3.01,3.12-1.59,3.12H45.69c-1.6,0-2.53-1.82-1.59-3.12l57.49-79.94,9.51,9.72,14.22-7.57,11.88,16.82,11.72-18.5,17.97,11.1s3.48-5.22,6.53-10.56l9.74,13.54,11.6,16.14,35.42,49.25Z"/>
        <path class="cls-1" d="m214.98,125.02l-6.53,4.46-12.02,8.22-1.67,1.2-11.6-16.14c1.69-6.18,8.09-10.78,15.71-10.78,8.54,0,15.52,5.75,16.11,13.04Z"/>
        <path class="cls-1" d="m142.02,65.55l31.4,43.67c-3.05,5.34-6.53,10.56-6.53,10.56l-17.97-11.1-11.72,18.5-11.88-16.82-14.22,7.57-9.51-9.72,30.67-42.66c2.4-3.34,7.36-3.34,9.76,0Z"/>
      </g>
      <g>
        <path class="cls-5" d="m282.34,133.05l-29.1-29.28c-1.97-1.99-5.2-1.99-7.18,0l-31.08,21.25-6.53,4.46-12.02,8.22"/>
        <path class="cls-5" d="m228.59,191.27h109.18c.87,0,1.29-1.15.66-1.79l-56.08-56.43"/>
        <path class="cls-5" d="m173.42,109.22l-31.4-43.67c-2.4-3.34-7.36-3.34-9.76,0l-30.67,42.66-57.49,79.94c-.94,1.3,0,3.12,1.59,3.12h182.9c1.6,0,2.53-1.82,1.59-3.12l-35.42-49.25-11.6-16.14-9.74-13.54Z"/>
        <path class="cls-5" d="m101.58,108.2h.01s9.51,9.73,9.51,9.73l14.22-7.57,11.88,16.82,11.72-18.5,17.97,11.1s3.48-5.22,6.53-10.56"/>
        <polyline class="cls-5" points="208.45 129.48 215.02 136.28 235.9 130.59 253.34 143.24 270.56 129.33 282.34 133.05 282.35 133.05"/>
        <path class="cls-5" d="m183.16,122.76c1.69-6.18,8.09-10.78,15.71-10.78,8.54,0,15.52,5.75,16.11,13.04"/>
        <line class="cls-4" x1="199.07" y1="89.62" x2="199.07" y2="101.24"/>
        <line class="cls-4" x1="219.12" y1="96.91" x2="214.98" y2="107.64"/>
        <line class="cls-4" x1="176.36" y1="94.24" x2="181.63" y2="104.38"/>
      </g>
    </g>
  </g>
</svg>